Coordinates
version=1
nRows=19
nColumns=24
inDegrees=yes

Units are S.I. units (second, meters, Newtons, ...)
Angles are in degrees.

endheader
time	pelvis_tilt	pelvis_list	pelvis_rotation	pelvis_tx	pelvis_ty	pelvis_tz	hip_flexion_r	hip_adduction_r	hip_rotation_r	knee_angle_r	ankle_angle_r	subtalar_angle_r	mtp_angle_r	hip_flexion_l	hip_adduction_l	hip_rotation_l	knee_angle_l	ankle_angle_l	subtalar_angle_l	mtp_angle_l	lumbar_extension	lumbar_bending	lumbar_rotation
      5.59000000	      1.35582573	      6.44874979	     13.09470878	     -1.54053130	      0.92282327	      0.23195373	     24.37005478	    -10.09240647	    -12.30102323	    -11.66498549	      6.22826163	     -1.10338479	      0.00000000	    -23.08429089	      4.15013207	      7.70616036	    -10.24069868	     12.42810931	     -7.87248506	      0.00000000	    -21.58650495	     -4.96389466	    -21.00372665
      5.60000000	      1.70899029	      5.99723761	     12.92111679	     -1.52544859	      0.92245921	      0.23356571	     24.44667170	     -9.22270798	    -10.84471185	    -13.69195994	      5.16886853	     -3.18595270	      0.00000000	    -23.51410154	      3.38621460	      7.29896813	    -11.51404941	     11.46578239	     -7.49170804	      0.00000000	    -21.60337441	     -4.40793986	    -20.61432552
      5.61000000	      1.97417057	      5.50948590	     12.69861979	     -1.51032342	      0.92227739	      0.23516190	     24.62624651	     -8.32286451	     -9.54405437	    -15.79963571	      4.16428262	     -4.69612308	      0.00000000	    -23.71493411	      2.66305529	      6.91503571	    -12.99725744	     10.23755619	     -7.23538639	      0.00000000	    -21.49944226	     -3.83223766	    -20.15383847
      5.62000000	      2.31863894	      4.98769263	     12.25899885	     -1.49511451	      0.92235452	      0.23704191	     24.72345674	     -7.28852893	     -8.26453308	    -17.90902397	      3.38195242	     -5.63112350	      0.00000000	    -23.84499000	      1.98060931	      6.04803272	    -14.72275755	      8.87811876	     -6.77156699	      0.00000000	    -21.47161114	     -3.24818656	    -19.51895211
      5.63000000	      2.69586664	      4.44038968	     11.82521294	     -1.47983924	      0.92279050	      0.23886758	     24.64505240	     -6.23782716	     -7.26833918	    -19.84338920	      2.88596464	     -6.07163495	      0.00000000	    -23.83220020	      1.27743764	      5.05207044	    -16.70742042	      7.19429288	     -6.32306181	      0.00000000	    -21.46542306	     -2.61596868	    -18.89958792
      5.64000000	      3.12803578	      3.90326809	     11.37826429	     -1.46465538	      0.92354756	      0.24074780	     24.33848551	     -5.18279954	     -6.45204211	    -21.51416701	      2.66483826	     -6.30794624	      0.00000000	    -23.65850874	      0.57210159	      3.86409056	    -19.01207991	      5.21826394	     -5.84688419	      0.00000000	    -21.55664863	     -1.98252150	    -18.31848530
      5.65000000	      3.51222607	      3.34665853	     10.96635394	     -1.44951384	      0.92449970	      0.24250452	     23.89347812	     -4.16014974	     -5.93679034	    -22.89459554	      2.77435968	     -6.33687414	      0.00000000	    -23.22788353	     -0.15588043	      2.62209426	    -21.57305949	      2.83648686	     -5.55838384	      0.00000000	    -21.58936569	     -1.31960252	    -17.75212995
      5.66000000	      3.81227416	      2.77569769	     10.64366515	     -1.43460131	      0.92558585	      0.24410037	     23.34296788	     -3.19405894	     -5.68412476	    -23.95586609	      3.15525815	     -6.31400172	      0.00000000	    -22.45579261	     -0.92282920	      1.43467051	    -24.43751778	      0.10143556	     -5.49398518	      0.00000000	    -21.55677460	     -0.60818203	    -17.26259236
      5.67000000	      4.03221958	      2.17767055	     10.46727306	     -1.42004088	      0.92675220	      0.24561125	     22.70453342	     -2.26953265	     -5.65790666	    -24.72576283	      3.77926043	     -6.31507687	      0.00000000	    -21.32480040	     -1.77916337	      0.37970143	    -27.60328305	     -2.87935233	     -5.70468869	      0.00000000	    -21.48294004	      0.12544248	    -16.87573616
      5.68000000	      4.17457506	      1.57129747	     10.29652864	     -1.40589753	      0.92792045	      0.24710863	     22.03322303	     -1.35128677	     -5.68290620	    -25.25009041	      4.55137443	     -6.35816221	      0.00000000	    -19.89208063	     -2.63129669	     -0.56188589	    -30.97725606	     -6.11439763	     -6.31874888	      0.00000000	    -21.38324166	      0.85729567	    -16.43864235
      5.69000000	      4.21119969	      0.89854620	     10.29783781	     -1.39221072	      0.92908783	      0.24831249	     21.35870027	     -0.45713263	     -5.95068159	    -25.53613324	      5.40535756	     -6.34052350	      0.00000000	    -18.10149378	     -3.55963655	     -1.14157372	    -34.55861884	     -9.43139521	     -7.30661031	      0.00000000	    -21.20422056	      1.70240557	    -16.07157060
      5.70000000	      4.08675948	      0.23880416	     10.42633709	     -1.37905782	      0.93007959	      0.24929389	     20.78281453	      0.35737066	     -6.28062911	    -25.66048194	      6.37763580	     -6.26322240	      0.00000000	    -15.92265077	     -4.43255454	     -1.39428150	    -38.29875045	    -12.71545667	     -8.72234190	      0.00000000	    -20.89862946	      2.53724321	    -15.84793355
      5.71000000	      3.78971947	     -0.46545745	     10.58575222	     -1.36631319	      0.93082043	      0.25013072	     20.37102257	      1.16067916	     -6.71034039	    -25.68170867	      7.37264131	     -6.03670111	      0.00000000	    -13.39542175	     -5.27048348	     -1.44720005	    -42.12433307	    -15.73398941	    -10.30113054	      0.00000000	    -20.42094002	      3.39600889	    -15.60167611
      5.72000000	      3.52631092	     -1.18706162	     10.76434360	     -1.35398787	      0.93159014	      0.25084258	     19.88297229	      1.99597096	     -7.10532307	    -25.55075168	      8.23349520	     -5.88662660	      0.00000000	    -10.79848791	     -6.05936698	     -1.31676340	    -45.91735990	    -18.36862626	    -12.02663225	      0.00000000	    -20.03043176	      4.28203345	    -15.27710397
      5.73000000	      3.27773113	     -1.88158719	     10.93067675	     -1.34195360	      0.93237937	      0.25147997	     19.34345583	      2.82529751	     -7.41881382	    -25.30627687	      9.00947090	     -5.77517053	      0.00000000	     -8.17074160	     -6.75071499	     -1.08329433	    -49.58754103	    -20.45180595	    -13.70793567	      0.00000000	    -19.69252337	      5.13027091	    -14.93277961
      5.74000000	      3.07080055	     -2.51206811	     11.04997635	     -1.33011728	      0.93328987	      0.25211504	     18.71355272	      3.62893178	     -7.61243516	    -24.95017088	      9.67799034	     -5.70704722	      0.00000000	     -5.59391341	     -7.31838693	     -0.82331702	    -53.04854472	    -21.87252059	    -15.16888157	      0.00000000	    -19.43640933	      5.88381832	    -14.54873877
      5.75000000	      3.00330644	     -3.04832748	     11.11103327	     -1.31849757	      0.93450574	      0.25281232	     17.89072674	      4.39883452	     -7.69074936	    -24.49253738	     10.16960248	     -5.71850026	      0.00000000	     -3.20520024	     -7.77300531	     -0.60824017	    -56.23493150	    -22.56106297	    -16.28109993	      0.00000000	    -19.40974918	      6.52710915	    -14.13145225
      5.76000000	      2.86195318	     -3.46510982	     11.11868991	     -1.30701916	      0.93570858	      0.25351043	     17.10965324	      5.04344518	     -7.69442446	    -23.99143419	     10.66772666	     -5.69353123	      0.00000000	     -0.79379409	     -8.04336909	     -0.42635680	    -59.14620331	    -22.35533521	    -16.93467329	      0.00000000	    -19.33181924	      6.98911985	    -13.68223074
      5.77000000	      2.77468247	     -3.73604182	     11.00579490	     -1.29564992	      0.93715347	      0.25434584	     16.21957547	      5.58072150	     -7.53690283	    -23.43937932	     11.14597981	     -5.57846697	      0.00000000	      1.45511901	     -8.15048079	     -0.38315362	    -61.70559648	    -21.43035272	    -17.04080160	      0.00000000	    -19.38587605	      7.24269914	    -13.18351605
